/* XPM */
static char *floor[] = {
"24 24 6 1",
" 	c #8B8B8B",
".	c #AAAAAA",
"+	c #787878",
"@	c #666666",
"#	c #999999",
"X	c #555555",
"........................",
"........................",
"......+++.......+++.....",
".....+@@@+.....+@@@+....",
"....+@###@+...+@###@+...",
"...+@#####@+.+@#####@+..",
"...+@#####@+.+@#####@+..",
"....+@###@+...+@###@+...",
".....+@@@+.....+@@@+....",
"......+++.......+++.....",
"........................",
"........................",
"......+++.......+++.....",
".....+@@@+.....+@@@+....",
"....+@###@+...+@###@+...",
"...+@#####@+.+@#####@+..",
"...+@#####@+.+@#####@+..",
"....+@###@+...+@###@+...",
".....+@@@+.....+@@@+....",
"......+++.......+++.....",
"........................",
"........................",
"........................",
"........................"
};

