/* XPM */
static char *key1[] = {
"24 24 6 1",
" 	c #FFD700",
".	c #FFAA00",
"+	c #FFC300",
"@	c #FF8800",
"#	c #FFB800",
"X	c #FFA500",
"........................",
"........................",
"..........++............",
".........+@@+...........",
"........+@##@+..........",
".......+@####@+.........",
".......+@####@+.........",
"........+@##@+..........",
".........+@@+...........",
"..........++............",
"...........++...........",
"...........++...........",
"...........++...........",
"...........++...........",
"...........++...........",
"...........++...........",
"..........++++..........",
".........+XXXX+.........",
"........+XXXXXX+........",
".......+XXXXXXXX+.......",
"......+XXXXXXXXXX+......",
"........................",
"........................",
"........................"
};
