/* XPM */
static char *key2[] = {
"24 24 6 1",
" 	c #FFEA00",
".	c #FFD000",
"+	c #FFC000",
"@	c #FFB000",
"#	c #FFA000",
"X	c #FF9000",
"........................",
"........................",
"..........++............",
".........+..+...........",
"........+....+..........",
".......+......+.........",
".......+......+.........",
"........+....+..........",
".........+..+...........",
"..........++............",
"...........++...........",
"...........++...........",
"...........++...........",
"...........++...........",
"...........++...........",
"...........++...........",
"..........++++..........",
".........+XXXX+.........",
"........+XXXXXX+........",
".......+XXXXXXXX+.......",
"......+XXXXXXXXXX+......",
"........................",
"........................",
"........................"
};
